<?xml version="1.0" encoding="utf-8"?>
<!-- Svg Vector Icons : http://www.onlinewebfonts.com/icon -->
<!DOCTYPE svg PUBLIC "-//W3C//DTD SVG 1.1//EN" "http://www.w3.org/Graphics/SVG/1.1/DTD/svg11.dtd">
<svg version="1.1" xmlns="http://www.w3.org/2000/svg" xmlns:xlink="http://www.w3.org/1999/xlink" x="0px" y="0px" viewBox="0 0 1000 1000" enable-background="new 0 0 1000 1000" xml:space="preserve">
<metadata> Svg Vector Icons : http://www.onlinewebfonts.com/icon </metadata>
<g><g><g><g><g><path d="M806.3,10H193.7C92.3,10,10,92.3,10,193.7v612.5C10,907.7,92.3,990,193.7,990h612.5C907.7,990,990,907.7,990,806.3V193.7C990,92.3,907.7,10,806.3,10z M500,867.5C297,867.5,132.5,703,132.5,500S297,132.5,500,132.5S867.5,297,867.5,500S703,867.5,500,867.5z"/><path d="M703.9,537.3c-80.2-41.7-170.6-63.8-261.5-63.8c-50.7,0-101.2,6.7-149.9,20c-15.7,4.3-24.9,31.1-20.6,46.7c4.3,15.7,20.5,24.9,36.2,20.6c43.6-11.9,88.9-17.9,134.3-17.9c82.7,0,161.5,19.2,234.5,57.1c4.3,2.3,8.9,3.4,13.5,3.4c10.7,0,20.9-16.5,26.2-26.6C723.9,562.5,718.3,544.7,703.9,537.3z"/><path d="M442.3,326.4c-56.5,0-112.7,6.9-167.3,20.4c-18.1,4.5-29,26.3-24.6,44.3c4.5,18,22.7,29,40.8,24.6c49.2-12.2,100.1-18.4,151.1-18.4c97.9,0,191.6,22,278.7,65.4c4.8,2.4,9.9,3.6,14.9,3.6c12.4,0,24.3-10.4,30.3-22.2c8.3-16.6,1.4-36.9-15.2-45.1C654.5,350.7,550.7,326.4,442.3,326.4z"/><path d="M442.3,611.2c-45.5,0-90.5,6.7-133.6,20.1c-13.4,4-20.8,32.3-16.7,45.7c4.1,13.3,18.3,20.8,31.6,16.6c38.3-11.9,78.3-17.9,118.7-17.9c67.5,0,134.3,17.1,193.2,49.7l12.2,3.1c8.9,0,17.6-4.8,22-13.2c6.7-12.2,2.4-41.8-9.9-48.4C593.5,630.5,518.3,611.2,442.3,611.2z"/></g></g></g></g><g></g><g></g><g></g><g></g><g></g><g></g><g></g><g></g><g></g><g></g><g></g><g></g><g></g><g></g><g></g></g>
</svg>